RBDS017runT35_grf
version=1
nRows=30
nColumns=19
inDegrees=no
endheader
time	ground_force_r_vx	ground_force_r_vy	ground_force_r_vz	ground_force_r_px	ground_force_r_py	ground_force_r_pz	ground_force_r_mx	ground_force_r_my	ground_force_r_mz	ground_force_l_vx	ground_force_l_vy	ground_force_l_vz	ground_force_l_px	ground_force_l_py	ground_force_l_pz	ground_force_l_mx	ground_force_l_my	ground_force_l_mz
      0.00000000	      0.00000000	      0.00000000	      0.00000000	      0.00000000	      0.00000000	      0.00000000	      0.00000000	      0.00000000	      0.00000000	   -416.90000723	   1503.05749554	     77.36130639	      2.27526994	      0.00000000	      0.95994597	     -0.00000000	    -14.08460710	     -0.00000000
      0.00100000	      0.00000000	      0.00000000	      0.00000000	      0.00000000	      0.00000000	      0.00000000	      0.00000000	      0.00000000	      0.00000000	   -408.89985405	   1522.15023653	     77.59214827	      2.27302925	      0.00000000	      0.95994448	     -0.00000000	    -13.47127658	     -0.00000000
      0.00200000	      0.00000000	      0.00000000	      0.00000000	      0.00000000	      0.00000000	      0.00000000	      0.00000000	      0.00000000	      0.00000000	   -400.89970086	   1541.24297753	     77.82299014	      2.27078857	      0.00000000	      0.95994300	     -0.00000000	    -12.85794607	     -0.00000000
      0.00300000	      0.00000000	      0.00000000	      0.00000000	      0.00000000	      0.00000000	      0.00000000	      0.00000000	      0.00000000	      0.00000000	   -392.89954767	   1560.33571852	     78.05383201	      2.26854789	      0.00000000	      0.95994151	     -0.00000000	    -12.24461556	     -0.00000000
      0.00400000	      0.00000000	      0.00000000	      0.00000000	      0.00000000	      0.00000000	      0.00000000	      0.00000000	      0.00000000	      0.00000000	   -384.99516028	   1579.31387053	     78.30040705	      2.26630879	      0.00000000	      0.95993804	     -0.00000000	    -11.63742104	     -0.00000000
      0.00500000	      0.00000000	      0.00000000	      0.00000000	      0.00000000	      0.00000000	      0.00000000	      0.00000000	      0.00000000	      0.00000000	   -377.13865578	   1598.23472804	     78.55484868	      2.26407048	      0.00000000	      0.95993358	     -0.00000000	    -11.03329451	     -0.00000000
      0.00600000	      0.00000000	      0.00000000	      0.00000000	      0.00000000	      0.00000000	      0.00000000	      0.00000000	      0.00000000	      0.00000000	   -369.28215128	   1617.15558555	     78.80929030	      2.26183217	      0.00000000	      0.95992911	     -0.00000000	    -10.42916799	     -0.00000000
      0.00700000	      0.00000000	      0.00000000	      0.00000000	      0.00000000	      0.00000000	      0.00000000	      0.00000000	      0.00000000	      0.00000000	   -361.48405683	   1635.94213498	     79.07400791	      2.25959075	      0.00000000	      0.95992318	     -0.00000000	     -9.83146715	     -0.00000000
      0.00800000	      0.00000000	      0.00000000	      0.00000000	      0.00000000	      0.00000000	      0.00000000	      0.00000000	      0.00000000	      0.00000000	   -353.80278248	   1654.46006827	     79.35927747	      2.25734313	      0.00000000	      0.95991428	     -0.00000000	     -9.24661769	     -0.00000000
      0.00900000	      0.00000000	      0.00000000	      0.00000000	      0.00000000	      0.00000000	      0.00000000	      0.00000000	      0.00000000	      0.00000000	   -346.12150812	   1672.97800155	     79.64454703	      2.25509550	      0.00000000	      0.95990538	     -0.00000000	     -8.66176823	     -0.00000000
      0.01000000	      0.00000000	      0.00000000	      0.00000000	      0.00000000	      0.00000000	      0.00000000	      0.00000000	      0.00000000	      0.00000000	   -338.44023377	   1691.49593484	     79.92981660	      2.25284787	      0.00000000	      0.95989649	     -0.00000000	     -8.07691877	     -0.00000000
      0.01100000	      0.00000000	      0.00000000	      0.00000000	      0.00000000	      0.00000000	      0.00000000	      0.00000000	      0.00000000	      0.00000000	   -330.96014938	   1709.38391817	     80.25118516	      2.25057907	      0.00000000	      0.95988178	     -0.00000000	     -7.52057273	     -0.00000000
      0.01200000	      0.00000000	      0.00000000	      0.00000000	      0.00000000	      0.00000000	      0.00000000	      0.00000000	      0.00000000	      0.00000000	   -323.48006499	   1727.27190150	     80.57255373	      2.24831026	      0.00000000	      0.95986708	     -0.00000000	     -6.96422670	     -0.00000000
      0.01300000	      0.00000000	      0.00000000	      0.00000000	      0.00000000	      0.00000000	      0.00000000	      0.00000000	      0.00000000	      0.00000000	   -315.99998059	   1745.15988483	     80.89392230	      2.24604145	      0.00000000	      0.95985237	     -0.00000000	     -6.40788066	     -0.00000000
      0.01400000	      0.00000000	      0.00000000	      0.00000000	      0.00000000	      0.00000000	      0.00000000	      0.00000000	      0.00000000	      0.00000000	   -308.66733319	   1762.48231403	     81.24114839	      2.24375103	      0.00000000	      0.95983298	     -0.00000000	     -5.87590131	     -0.00000000
      0.01500000	      0.00000000	      0.00000000	      0.00000000	      0.00000000	      0.00000000	      0.00000000	      0.00000000	      0.00000000	      0.00000000	   -301.40840428	   1779.52196615	     81.60130325	      2.24144980	      0.00000000	      0.95981124	     -0.00000000	     -5.35610531	     -0.00000000
      0.01600000	      0.00000000	      0.00000000	      0.00000000	      0.00000000	      0.00000000	      0.00000000	      0.00000000	      0.00000000	      0.00000000	   -294.14947538	   1796.56161827	     81.96145811	      2.23914858	      0.00000000	      0.95978950	     -0.00000000	     -4.83630931	     -0.00000000
      0.01700000	      0.00000000	      0.00000000	      0.00000000	      0.00000000	      0.00000000	      0.00000000	      0.00000000	      0.00000000	      0.00000000	   -286.96883121	   1813.25006708	     82.33444521	      2.23683322	      0.00000000	      0.95976508	     -0.00000000	     -4.33089856	     -0.00000000
      0.01800000	      0.00000000	      0.00000000	      0.00000000	      0.00000000	      0.00000000	      0.00000000	      0.00000000	      0.00000000	      0.00000000	   -279.94475651	   1829.23610926	     82.73309681	      2.23448959	      0.00000000	      0.95973529	     -0.00000000	     -3.85425831	     -0.00000000
      0.01900000	      0.00000000	      0.00000000	      0.00000000	      0.00000000	      0.00000000	      0.00000000	      0.00000000	      0.00000000	      0.00000000	   -272.92068181	   1845.22215144	     83.13174841	      2.23214596	      0.00000000	      0.95970550	     -0.00000000	     -3.37761806	     -0.00000000
      0.02000000	      0.00000000	      0.00000000	      0.00000000	      0.00000000	      0.00000000	      0.00000000	      0.00000000	      0.00000000	      0.00000000	   -265.89660711	   1861.20819362	     83.53040001	      2.22980233	      0.00000000	      0.95967571	     -0.00000000	     -2.90097781	     -0.00000000
      0.02100000	      0.00000000	      0.00000000	      0.00000000	      0.00000000	      0.00000000	      0.00000000	      0.00000000	      0.00000000	      0.00000000	   -259.11464878	   1875.95255680	     83.96413257	      2.22740805	      0.00000000	      0.95963711	     -0.00000000	     -2.47247849	     -0.00000000
      0.02200000	      0.00000000	      0.00000000	      0.00000000	      0.00000000	      0.00000000	      0.00000000	      0.00000000	      0.00000000	      0.00000000	   -252.33269045	   1890.69691999	     84.39786514	      2.22501378	      0.00000000	      0.95959850	     -0.00000000	     -2.04397916	     -0.00000000
      0.02300000	      0.00000000	      0.00000000	      0.00000000	      0.00000000	      0.00000000	      0.00000000	      0.00000000	      0.00000000	      0.00000000	   -245.55073213	   1905.44128318	     84.83159770	      2.22261950	      0.00000000	      0.95955990	     -0.00000000	     -1.61547983	     -0.00000000
      0.02400000	      0.00000000	      0.00000000	      0.00000000	      0.00000000	      0.00000000	      0.00000000	      0.00000000	      0.00000000	      0.00000000	   -238.93069795	   1919.24632656	     85.28440414	      2.22018730	      0.00000000	      0.95951511	     -0.00000000	     -1.22125518	     -0.00000000
      0.02500000	      0.00000000	      0.00000000	      0.00000000	      0.00000000	      0.00000000	      0.00000000	      0.00000000	      0.00000000	      0.00000000	   -232.39162586	   1932.58171005	     85.74674752	      2.21773614	      0.00000000	      0.95946722	     -0.00000000	     -0.84416786	     -0.00000000
      0.02600000	      0.00000000	      0.00000000	      0.00000000	      0.00000000	      0.00000000	      0.00000000	      0.00000000	      0.00000000	      0.00000000	   -225.85255376	   1945.91709354	     86.20909090	      2.21528498	      0.00000000	      0.95941933	     -0.00000000	     -0.46708055	     -0.00000000
      0.02700000	      0.00000000	      0.00000000	      0.00000000	      0.00000000	      0.00000000	      0.00000000	      0.00000000	      0.00000000	      0.00000000	   -219.39256348	   1958.73491553	     86.67787935	      2.21281347	      0.00000000	      0.95936829	     -0.00000000	     -0.10764723	     -0.00000000
      0.02800000	      0.00000000	      0.00000000	      0.00000000	      0.00000000	      0.00000000	      0.00000000	      0.00000000	      0.00000000	      0.00000000	   -213.09073683	   1970.51761452	     87.15955793	      2.21030128	      0.00000000	      0.95931095	     -0.00000000	      0.21647807	     -0.00000000
      0.02900000	      0.00000000	      0.00000000	      0.00000000	      0.00000000	      0.00000000	      0.00000000	      0.00000000	      0.00000000	      0.00000000	   -206.78891018	   1982.30031352	     87.64123652	      2.20778908	      0.00000000	      0.95925361	     -0.00000000	      0.54060338	     -0.00000000
